<svg viewBox="0 0 512 512" xml:space="preserve" xmlns="http://www.w3.org/2000/svg" fill-rule="evenodd" clip-rule="evenodd" stroke-linejoin="round" stroke-miterlimit="2"><path d="M143.353 356.876c6.823 0 13.318-.606 19.426-1.975 6.205-1.345 11.695-3.502 16.348-6.678 4.63-3.053 8.483-7.247 11.271-12.555 2.799-5.283 4.144-12.142 4.144-20.42 0-16.227-4.581-27.764-13.657-34.756-9.114-6.908-21.245-10.337-36.163-10.337h-75.39v86.721h74.021Zm-3.842-134.057c12.276 0 22.456-2.909 30.515-8.822 7.974-5.83 11.828-15.44 11.828-28.649 0-7.32-1.272-13.379-3.854-18.081-2.678-4.702-6.229-8.374-10.688-10.956-4.436-2.678-9.453-4.52-15.258-5.526-5.72-1.115-11.694-1.551-17.839-1.551H69.332v73.585h70.179Zm8.968-127.235c15.064 0 28.661 1.297 41.083 4 12.361 2.617 22.892 6.992 31.811 12.991 8.774 5.999 15.645 13.973 20.566 24.019 4.787 9.901 7.198 22.299 7.198 36.95 0 15.851-3.587 29.097-10.798 39.689-7.247 10.568-17.899 19.232-32.114 25.97 19.353 5.575 33.726 15.379 43.239 29.328 9.562 14.045 14.252 30.842 14.252 50.547 0 15.972-3.054 29.715-9.174 41.288-6.168 11.707-14.567 21.196-24.916 28.516-10.434 7.38-22.395 12.809-35.823 16.336-13.27 3.514-27.049 5.296-41.179 5.296H0V95.584h148.479ZM434.517 236.016c-7.453-8.228-20.044-12.688-35.423-12.688-10.01 0-18.287 1.684-24.928 5.114-6.496 3.393-11.804 7.598-15.863 12.567-4.048 5.042-6.787 10.374-8.399 16.07-1.599 5.55-2.569 10.579-2.848 15.027h101.895c-1.491-15.973-6.956-27.788-14.434-36.09Zm-71.973 119.818c9.392 9.162 22.953 13.767 40.525 13.767 12.628 0 23.535-3.187 32.697-9.562 9.076-6.362 14.603-13.161 16.735-20.214h55.165c-8.871 27.449-22.311 47.045-40.671 58.849-18.141 11.84-40.246 17.742-66.022 17.742-17.96 0-34.127-2.909-48.645-8.629-14.506-5.805-26.625-13.924-36.829-24.528-9.937-10.641-17.657-23.22-23.159-37.992-5.441-14.7-8.18-30.976-8.18-48.609 0-17.051 2.848-32.975 8.423-47.699 5.671-14.773 13.549-27.522 23.886-38.21 10.361-10.75 22.638-19.233 36.938-25.438 14.312-6.168 30.09-9.27 47.566-9.27 19.293 0 36.174 3.708 50.668 11.27 14.421 7.465 26.261 17.572 35.556 30.224 9.283 12.628 15.912 27.073 20.045 43.276 4.096 16.179 5.538 33.072 4.362 50.765H347.056c0 18.033 6.084 35.096 15.488 44.258Z" fill="#c3c3c3" fill-rule="nonzero" class="fill-030404"></path><path d="M334.235 116.72h127.659v31.072H334.235z" fill="#c3c3c3" class="fill-030404"></path></svg>