<?xml version="1.0" encoding="UTF-8"?>
<svg width="400px" height="262px" viewBox="0 0 400 262" version="1.1" xmlns="http://www.w3.org/2000/svg" xmlns:xlink="http://www.w3.org/1999/xlink">
    <title>Logo MT</title>
    <g id="Page-1" stroke="none" stroke-width="1" fill="none" fill-rule="evenodd">
        <g id="Logo-MT">
            <rect id="Rectangle" fill="#393E46" x="0" y="0" width="400" height="262"></rect>
            <g id="Logo" transform="translate(75.000000, 50.000000)">
                <g id="Group">
                    <path d="M51,0 L51,0.002 L83.5,74 L116,0.13 L116,0 L141,0 L141,162 L116,162 L116,50.003 L116,52 L91,108 L76.0253448,107.926315 L51,52.002 L51,162 L26,162 L26,0 L51,0 Z" id="M-shadow" fill="#93969A"></path>
                    <path d="M25,0 L25,0.002 L57.5,74 L90,0.13 L90,0 L115,0 L115,162 L90,162 L90,50.003 L90,52 L65,108 L50.0253448,107.926315 L25,52.002 L25,162 L0,162 L0,0 L25,0 Z" id="M" fill="#EEEEEE"></path>
                </g>
                <g id="Group-2" transform="translate(129.000000, 0.000000)">
                    <path d="M147,0 L147,25 L99,25 L99,162 L74,162 L74,25 L26,25 L26,0 L147,0 Z" id="T-shadow" fill="#93969A"></path>
                    <path d="M121,0 L121,25 L73,25 L73,162 L48,162 L48,25 L0,25 L0,0 L121,0 Z" id="T" fill="#DCDCDC"></path>
                </g>
            </g>
        </g>
    </g>
</svg>